/* XPM */
static char * disk_xpm[] = {
"23 18 2 1",
" 	c None",
".	c #000000",
"     .......           ",
"   ..       ..         ",
"  .           .        ",
"  ...       ...        ",
"  .  .......  .        ",
"  .           .        ",
"  .           .        ",
"  .           .        ",
"  .           .        ",
"  .           .        ",
"  .           .        ",
"  .           .        ",
"  .           .        ",
"  .           .        ",
"  .           .        ",
"   ..       ..         ",
"     .......           ",
"                       "};
